<svg xmlns="http://www.w3.org/2000/svg" width="760" height="380" viewBox="0 0 760 380">
<polygon points="205.3,187.0 208.1,148.7 261.2,159.4" fill="#ABABFF" stroke="#6b7a8f" stroke-width="0.6" stroke-linejoin="round"/>
<polygon points="238.2,205.0 205.3,187.0 261.2,159.4" fill="#A2A2FF" stroke="#6b7a8f" stroke-width="0.6" stroke-linejoin="round"/>
<polygon points="208.1,148.7 242.9,143.0 261.2,159.4" fill="#8F8FEE" stroke="#6b7a8f" stroke-width="0.6" stroke-linejoin="round"/>
<polygon points="261.6,177.8 238.2,205.0 261.2,159.4" fill="#A9A9FF" stroke="#6b7a8f" stroke-width="0.6" stroke-linejoin="round"/>
<polygon points="151.6,146.2 148.8,184.6 84.7,151.7" fill="#A0A0FF" stroke="#6b7a8f" stroke-width="0.6" stroke-linejoin="round"/>
<polygon points="242.9,143.0 261.6,177.8 261.2,159.4" fill="#9191EE" stroke="#6b7a8f" stroke-width="0.6" stroke-linejoin="round"/>
<polygon points="148.8,184.6 118.5,199.8 84.7,151.7" fill="#9E9EFF" stroke="#6b7a8f" stroke-width="0.6" stroke-linejoin="round"/>
<polygon points="175.8,234.4 208.7,252.4 169.0,308.4" fill="#9494F8" stroke="#6b7a8f" stroke-width="0.6" stroke-linejoin="round"/>
<polygon points="145.6,249.7 175.8,234.4 169.0,308.4" fill="#A2A2FF" stroke="#6b7a8f" stroke-width="0.6" stroke-linejoin="round"/>
<polygon points="123.2,137.7 151.6,146.2 84.7,151.7" fill="#8E8EEE" stroke="#6b7a8f" stroke-width="0.6" stroke-linejoin="round"/>
<polygon points="118.5,199.8 102.9,170.9 84.7,151.7" fill="#A2A2FF" stroke="#6b7a8f" stroke-width="0.6" stroke-linejoin="round"/>
<polygon points="208.7,252.4 199.1,278.8 169.0,308.4" fill="#9696F8" stroke="#6b7a8f" stroke-width="0.6" stroke-linejoin="round"/>
<polygon points="102.9,170.9 123.2,137.7 84.7,151.7" fill="#8E8EEE" stroke="#6b7a8f" stroke-width="0.6" stroke-linejoin="round"/>
<polygon points="160.0,277.1 145.6,249.7 169.0,308.4" fill="#9C9CFF" stroke="#6b7a8f" stroke-width="0.6" stroke-linejoin="round"/>
<polygon points="199.1,278.8 160.0,277.1 169.0,308.4" fill="#BABAFF" stroke="#6b7a8f" stroke-width="0.6" stroke-linejoin="round"/>
<polygon points="208.1,148.7 205.3,187.0 190.0,190.0" fill="#B5B5FF" stroke="#6b7a8f" stroke-width="0.6" stroke-linejoin="round"/>
<polygon points="205.3,187.0 238.2,205.0 190.0,190.0" fill="#ACACFF" stroke="#6b7a8f" stroke-width="0.6" stroke-linejoin="round"/>
<polygon points="148.8,184.6 151.6,146.2 190.0,190.0" fill="#A8A8FF" stroke="#6b7a8f" stroke-width="0.6" stroke-linejoin="round"/>
<polygon points="208.7,252.4 175.8,234.4 190.0,190.0" fill="#9494F8" stroke="#6b7a8f" stroke-width="0.6" stroke-linejoin="round"/>
<polygon points="118.5,199.8 148.8,184.6 190.0,190.0" fill="#A6A6FF" stroke="#6b7a8f" stroke-width="0.6" stroke-linejoin="round"/>
<polygon points="242.9,143.0 208.1,148.7 190.0,190.0" fill="#9999EE" stroke="#6b7a8f" stroke-width="0.6" stroke-linejoin="round"/>
<polygon points="175.8,234.4 145.6,249.7 190.0,190.0" fill="#A1A1FF" stroke="#6b7a8f" stroke-width="0.6" stroke-linejoin="round"/>
<polygon points="238.2,205.0 261.6,177.8 190.0,190.0" fill="#B3B3FF" stroke="#6b7a8f" stroke-width="0.6" stroke-linejoin="round"/>
<polygon points="220.1,101.3 185.2,107.0 190.0,28.7" fill="#9797F7" stroke="#6b7a8f" stroke-width="0.6" stroke-linejoin="round"/>
<polygon points="185.2,107.0 157.1,98.6 190.0,28.7" fill="#A5A5FF" stroke="#6b7a8f" stroke-width="0.6" stroke-linejoin="round"/>
<polygon points="261.6,177.8 242.9,143.0 190.0,190.0" fill="#9B9BEE" stroke="#6b7a8f" stroke-width="0.6" stroke-linejoin="round"/>
<polygon points="151.6,146.2 123.2,137.7 190.0,190.0" fill="#9696EE" stroke="#6b7a8f" stroke-width="0.6" stroke-linejoin="round"/>
<polygon points="258.9,244.2 282.3,216.9 326.2,282.5" fill="#A2A2FA" stroke="#6b7a8f" stroke-width="0.6" stroke-linejoin="round"/>
<polygon points="199.1,278.8 208.7,252.4 190.0,190.0" fill="#9696F8" stroke="#6b7a8f" stroke-width="0.6" stroke-linejoin="round"/>
<polygon points="102.9,170.9 118.5,199.8 190.0,190.0" fill="#AAAAFF" stroke="#6b7a8f" stroke-width="0.6" stroke-linejoin="round"/>
<polygon points="249.3,270.6 258.9,244.2 326.2,282.5" fill="#8F8FF4" stroke="#6b7a8f" stroke-width="0.6" stroke-linejoin="round"/>
<polygon points="145.6,249.7 160.0,277.1 190.0,190.0" fill="#9B9BFF" stroke="#6b7a8f" stroke-width="0.6" stroke-linejoin="round"/>
<polygon points="123.2,137.7 102.9,170.9 190.0,190.0" fill="#9696EE" stroke="#6b7a8f" stroke-width="0.6" stroke-linejoin="round"/>
<polygon points="185.2,107.0 220.1,101.3 190.0,190.0" fill="#ACACF7" stroke="#6b7a8f" stroke-width="0.6" stroke-linejoin="round"/>
<polygon points="213.4,89.4 220.1,101.3 190.0,28.7" fill="#8C8CF7" stroke="#6b7a8f" stroke-width="0.6" stroke-linejoin="round"/>
<polygon points="160.0,277.1 199.1,278.8 190.0,190.0" fill="#B9B9FF" stroke="#6b7a8f" stroke-width="0.6" stroke-linejoin="round"/>
<polygon points="157.1,98.6 185.2,107.0 190.0,190.0" fill="#BABAFF" stroke="#6b7a8f" stroke-width="0.6" stroke-linejoin="round"/>
<polygon points="282.3,216.9 258.9,244.2 190.0,190.0" fill="#9E9EF7" stroke="#6b7a8f" stroke-width="0.6" stroke-linejoin="round"/>
<polygon points="157.1,98.6 174.3,87.7 190.0,28.7" fill="#9292FF" stroke="#6b7a8f" stroke-width="0.6" stroke-linejoin="round"/>
<polygon points="258.9,244.2 249.3,270.6 190.0,190.0" fill="#8C8CF2" stroke="#6b7a8f" stroke-width="0.6" stroke-linejoin="round"/>
<polygon points="282.3,216.9 286.9,226.5 326.2,282.5" fill="#8C8CFA" stroke="#6b7a8f" stroke-width="0.6" stroke-linejoin="round"/>
<polygon points="174.3,87.7 213.4,89.4 190.0,28.7" fill="#A1A1FF" stroke="#6b7a8f" stroke-width="0.6" stroke-linejoin="round"/>
<polygon points="266.5,259.6 249.3,270.6 326.2,282.5" fill="#9B9BF4" stroke="#6b7a8f" stroke-width="0.6" stroke-linejoin="round"/>
<polygon points="267.9,127.1 286.5,161.9 190.0,190.0" fill="#9B9BF6" stroke="#6b7a8f" stroke-width="0.6" stroke-linejoin="round"/>
<polygon points="220.1,101.3 213.4,89.4 190.0,190.0" fill="#A1A1F7" stroke="#6b7a8f" stroke-width="0.6" stroke-linejoin="round"/>
<polygon points="286.5,161.9 267.9,127.1 339.2,109.8" fill="#9494EE" stroke="#6b7a8f" stroke-width="0.6" stroke-linejoin="round"/>
<polygon points="88.9,208.5 104.5,237.5 40.8,270.2" fill="#9D9DEE" stroke="#6b7a8f" stroke-width="0.6" stroke-linejoin="round"/>
<polygon points="104.5,237.5 88.9,208.5 190.0,190.0" fill="#9D9DEE" stroke="#6b7a8f" stroke-width="0.6" stroke-linejoin="round"/>
<polygon points="104.5,237.5 119.1,264.9 40.8,270.2" fill="#8A8AEE" stroke="#6b7a8f" stroke-width="0.6" stroke-linejoin="round"/>
<polygon points="119.1,264.9 104.5,237.5 190.0,190.0" fill="#8A8AEE" stroke="#6b7a8f" stroke-width="0.6" stroke-linejoin="round"/>
<polygon points="286.9,226.5 282.3,216.9 190.0,190.0" fill="#8888F7" stroke="#6b7a8f" stroke-width="0.6" stroke-linejoin="round"/>
<polygon points="174.3,87.7 157.1,98.6 190.0,190.0" fill="#A7A7FF" stroke="#6b7a8f" stroke-width="0.6" stroke-linejoin="round"/>
<polygon points="286.9,226.5 266.5,259.6 326.2,282.5" fill="#ACACFA" stroke="#6b7a8f" stroke-width="0.6" stroke-linejoin="round"/>
<polygon points="249.3,270.6 266.5,259.6 190.0,190.0" fill="#9797F2" stroke="#6b7a8f" stroke-width="0.6" stroke-linejoin="round"/>
<polygon points="260.9,115.1 267.9,127.1 190.0,190.0" fill="#8888EB" stroke="#6b7a8f" stroke-width="0.6" stroke-linejoin="round"/>
<polygon points="267.9,127.1 260.9,115.1 339.2,109.8" fill="#8181E3" stroke="#6b7a8f" stroke-width="0.6" stroke-linejoin="round"/>
<polygon points="286.5,161.9 291.1,171.5 190.0,190.0" fill="#9999F6" stroke="#6b7a8f" stroke-width="0.6" stroke-linejoin="round"/>
<polygon points="291.1,171.5 286.5,161.9 339.2,109.8" fill="#9292EE" stroke="#6b7a8f" stroke-width="0.6" stroke-linejoin="round"/>
<polygon points="213.4,89.4 174.3,87.7 190.0,190.0" fill="#B6B6FF" stroke="#6b7a8f" stroke-width="0.6" stroke-linejoin="round"/>
<polygon points="93.1,153.5 113.5,120.4 190.0,190.0" fill="#A9A9FD" stroke="#6b7a8f" stroke-width="0.6" stroke-linejoin="round"/>
<polygon points="266.5,259.6 286.9,226.5 190.0,190.0" fill="#A8A8F7" stroke="#6b7a8f" stroke-width="0.6" stroke-linejoin="round"/>
<polygon points="205.7,292.3 166.6,290.6 190.0,190.0" fill="#A6A6FF" stroke="#6b7a8f" stroke-width="0.6" stroke-linejoin="round"/>
<polygon points="93.5,218.1 88.9,208.5 40.8,270.2" fill="#8181EE" stroke="#6b7a8f" stroke-width="0.6" stroke-linejoin="round"/>
<polygon points="88.9,208.5 93.5,218.1 190.0,190.0" fill="#8181EE" stroke="#6b7a8f" stroke-width="0.6" stroke-linejoin="round"/>
<polygon points="119.1,264.9 112.1,252.9 40.8,270.2" fill="#9696EE" stroke="#6b7a8f" stroke-width="0.6" stroke-linejoin="round"/>
<polygon points="112.1,252.9 119.1,264.9 190.0,190.0" fill="#9696EE" stroke="#6b7a8f" stroke-width="0.6" stroke-linejoin="round"/>
<polygon points="113.5,120.4 130.7,109.4 190.0,190.0" fill="#8A8AEC" stroke="#6b7a8f" stroke-width="0.6" stroke-linejoin="round"/>
<polygon points="113.5,120.4 93.1,153.5 53.8,97.5" fill="#9B9BEE" stroke="#6b7a8f" stroke-width="0.6" stroke-linejoin="round"/>
<polygon points="222.9,281.4 205.7,292.3 190.0,190.0" fill="#9898FF" stroke="#6b7a8f" stroke-width="0.6" stroke-linejoin="round"/>
<polygon points="97.7,163.1 93.1,153.5 190.0,190.0" fill="#A1A1FD" stroke="#6b7a8f" stroke-width="0.6" stroke-linejoin="round"/>
<polygon points="275.5,142.5 260.9,115.1 190.0,190.0" fill="#8888EB" stroke="#6b7a8f" stroke-width="0.6" stroke-linejoin="round"/>
<polygon points="260.9,115.1 275.5,142.5 339.2,109.8" fill="#8181E3" stroke="#6b7a8f" stroke-width="0.6" stroke-linejoin="round"/>
<polygon points="291.1,171.5 275.5,142.5 190.0,190.0" fill="#B5B5F6" stroke="#6b7a8f" stroke-width="0.6" stroke-linejoin="round"/>
<polygon points="275.5,142.5 291.1,171.5 339.2,109.8" fill="#AEAEEE" stroke="#6b7a8f" stroke-width="0.6" stroke-linejoin="round"/>
<polygon points="112.1,252.9 93.5,218.1 40.8,270.2" fill="#9A9AEE" stroke="#6b7a8f" stroke-width="0.6" stroke-linejoin="round"/>
<polygon points="166.6,290.6 159.9,278.7 190.0,190.0" fill="#9393F7" stroke="#6b7a8f" stroke-width="0.6" stroke-linejoin="round"/>
<polygon points="93.5,218.1 112.1,252.9 190.0,190.0" fill="#9A9AEE" stroke="#6b7a8f" stroke-width="0.6" stroke-linejoin="round"/>
<polygon points="130.7,109.4 113.5,120.4 53.8,97.5" fill="#7B7BDD" stroke="#6b7a8f" stroke-width="0.6" stroke-linejoin="round"/>
<polygon points="166.6,290.6 205.7,292.3 190.0,351.3" fill="#B3B3FF" stroke="#6b7a8f" stroke-width="0.6" stroke-linejoin="round"/>
<polygon points="93.1,153.5 97.7,163.1 53.8,97.5" fill="#9393EE" stroke="#6b7a8f" stroke-width="0.6" stroke-linejoin="round"/>
<polygon points="130.7,109.4 121.1,135.8 190.0,190.0" fill="#8C8CEC" stroke="#6b7a8f" stroke-width="0.6" stroke-linejoin="round"/>
<polygon points="205.7,292.3 222.9,281.4 190.0,351.3" fill="#A6A6FF" stroke="#6b7a8f" stroke-width="0.6" stroke-linejoin="round"/>
<polygon points="121.1,135.8 97.7,163.1 190.0,190.0" fill="#B8B8FD" stroke="#6b7a8f" stroke-width="0.6" stroke-linejoin="round"/>
<polygon points="194.8,273.0 222.9,281.4 190.0,190.0" fill="#ABABFF" stroke="#6b7a8f" stroke-width="0.6" stroke-linejoin="round"/>
<polygon points="180.9,101.2 220.0,102.9 190.0,190.0" fill="#A6A6FF" stroke="#6b7a8f" stroke-width="0.6" stroke-linejoin="round"/>
<polygon points="159.9,278.7 166.6,290.6 190.0,351.3" fill="#A0A0F7" stroke="#6b7a8f" stroke-width="0.6" stroke-linejoin="round"/>
<polygon points="159.9,278.7 194.8,273.0 190.0,190.0" fill="#9E9EF7" stroke="#6b7a8f" stroke-width="0.6" stroke-linejoin="round"/>
<polygon points="277.1,209.1 256.8,242.3 190.0,190.0" fill="#9494F8" stroke="#6b7a8f" stroke-width="0.6" stroke-linejoin="round"/>
<polygon points="220.0,102.9 234.4,130.3 190.0,190.0" fill="#9999FF" stroke="#6b7a8f" stroke-width="0.6" stroke-linejoin="round"/>
<polygon points="121.1,135.8 130.7,109.4 53.8,97.5" fill="#7E7EDD" stroke="#6b7a8f" stroke-width="0.6" stroke-linejoin="round"/>
<polygon points="261.5,180.2 277.1,209.1 190.0,190.0" fill="#9090F5" stroke="#6b7a8f" stroke-width="0.6" stroke-linejoin="round"/>
<polygon points="171.3,127.6 180.9,101.2 190.0,190.0" fill="#9494FB" stroke="#6b7a8f" stroke-width="0.6" stroke-linejoin="round"/>
<polygon points="97.7,163.1 121.1,135.8 53.8,97.5" fill="#A9A9EE" stroke="#6b7a8f" stroke-width="0.6" stroke-linejoin="round"/>
<polygon points="256.8,242.3 228.4,233.8 190.0,190.0" fill="#A5A5F8" stroke="#6b7a8f" stroke-width="0.6" stroke-linejoin="round"/>
<polygon points="137.1,237.0 118.4,202.2 190.0,190.0" fill="#9898F8" stroke="#6b7a8f" stroke-width="0.6" stroke-linejoin="round"/>
<polygon points="222.9,281.4 194.8,273.0 190.0,351.3" fill="#B9B9FF" stroke="#6b7a8f" stroke-width="0.6" stroke-linejoin="round"/>
<polygon points="194.8,273.0 159.9,278.7 190.0,351.3" fill="#ABABF7" stroke="#6b7a8f" stroke-width="0.6" stroke-linejoin="round"/>
<polygon points="118.4,202.2 141.8,175.0 190.0,190.0" fill="#9898FA" stroke="#6b7a8f" stroke-width="0.6" stroke-linejoin="round"/>
<polygon points="234.4,130.3 204.2,145.6 190.0,190.0" fill="#B8B8FF" stroke="#6b7a8f" stroke-width="0.6" stroke-linejoin="round"/>
<polygon points="171.9,231.3 137.1,237.0 190.0,190.0" fill="#A7A7F8" stroke="#6b7a8f" stroke-width="0.6" stroke-linejoin="round"/>
<polygon points="231.2,195.4 261.5,180.2 190.0,190.0" fill="#8D8DF3" stroke="#6b7a8f" stroke-width="0.6" stroke-linejoin="round"/>
<polygon points="204.2,145.6 171.3,127.6 190.0,190.0" fill="#AAAAFB" stroke="#6b7a8f" stroke-width="0.6" stroke-linejoin="round"/>
<polygon points="228.4,233.8 231.2,195.4 190.0,190.0" fill="#A9A9FC" stroke="#6b7a8f" stroke-width="0.6" stroke-linejoin="round"/>
<polygon points="141.8,175.0 174.7,193.0 190.0,190.0" fill="#9393FA" stroke="#6b7a8f" stroke-width="0.6" stroke-linejoin="round"/>
<polygon points="174.7,193.0 171.9,231.3 190.0,190.0" fill="#B5B5FF" stroke="#6b7a8f" stroke-width="0.6" stroke-linejoin="round"/>
<polygon points="220.0,102.9 180.9,101.2 211.0,71.6" fill="#9C9CFD" stroke="#6b7a8f" stroke-width="0.6" stroke-linejoin="round"/>
<polygon points="234.4,130.3 220.0,102.9 211.0,71.6" fill="#8F8FFD" stroke="#6b7a8f" stroke-width="0.6" stroke-linejoin="round"/>
<polygon points="256.8,242.3 277.1,209.1 295.3,228.3" fill="#9A9AF8" stroke="#6b7a8f" stroke-width="0.6" stroke-linejoin="round"/>
<polygon points="180.9,101.2 171.3,127.6 211.0,71.6" fill="#8A8AF9" stroke="#6b7a8f" stroke-width="0.6" stroke-linejoin="round"/>
<polygon points="277.1,209.1 261.5,180.2 295.3,228.3" fill="#9696F5" stroke="#6b7a8f" stroke-width="0.6" stroke-linejoin="round"/>
<polygon points="228.4,233.8 256.8,242.3 295.3,228.3" fill="#ABABF8" stroke="#6b7a8f" stroke-width="0.6" stroke-linejoin="round"/>
<polygon points="204.2,145.6 234.4,130.3 211.0,71.6" fill="#ADADFD" stroke="#6b7a8f" stroke-width="0.6" stroke-linejoin="round"/>
<polygon points="171.3,127.6 204.2,145.6 211.0,71.6" fill="#A0A0F9" stroke="#6b7a8f" stroke-width="0.6" stroke-linejoin="round"/>
<polygon points="261.5,180.2 231.2,195.4 295.3,228.3" fill="#9393F3" stroke="#6b7a8f" stroke-width="0.6" stroke-linejoin="round"/>
<polygon points="118.4,202.2 137.1,237.0 118.8,220.6" fill="#9D9DF8" stroke="#6b7a8f" stroke-width="0.6" stroke-linejoin="round"/>
<polygon points="231.2,195.4 228.4,233.8 295.3,228.3" fill="#AFAFFC" stroke="#6b7a8f" stroke-width="0.6" stroke-linejoin="round"/>
<polygon points="141.8,175.0 118.4,202.2 118.8,220.6" fill="#9E9EFA" stroke="#6b7a8f" stroke-width="0.6" stroke-linejoin="round"/>
<polygon points="137.1,237.0 171.9,231.3 118.8,220.6" fill="#ACACF8" stroke="#6b7a8f" stroke-width="0.6" stroke-linejoin="round"/>
<polygon points="174.7,193.0 141.8,175.0 118.8,220.6" fill="#9898FA" stroke="#6b7a8f" stroke-width="0.6" stroke-linejoin="round"/>
<polygon points="171.9,231.3 174.7,193.0 118.8,220.6" fill="#BABAFF" stroke="#6b7a8f" stroke-width="0.6" stroke-linejoin="round"/>
<polygon points="601.1,139.4 565.1,150.1 570.0,69.5" fill="#9797F7" stroke="#6b7a8f" stroke-width="0.6" stroke-linejoin="round"/>
<polygon points="565.1,150.1 535.9,134.4 570.0,69.5" fill="#A5A5FF" stroke="#6b7a8f" stroke-width="0.6" stroke-linejoin="round"/>
<polygon points="594.2,117.1 601.1,139.4 570.0,69.5" fill="#8C8CF7" stroke="#6b7a8f" stroke-width="0.6" stroke-linejoin="round"/>
<polygon points="535.9,134.4 553.8,113.9 570.0,69.5" fill="#9292FF" stroke="#6b7a8f" stroke-width="0.6" stroke-linejoin="round"/>
<polygon points="553.8,113.9 594.2,117.1 570.0,69.5" fill="#A1A1FF" stroke="#6b7a8f" stroke-width="0.6" stroke-linejoin="round"/>
<polygon points="565.1,150.1 601.1,139.4 570.0,215.0" fill="#ACACF7" stroke="#6b7a8f" stroke-width="0.6" stroke-linejoin="round"/>
<polygon points="535.9,134.4 565.1,150.1 570.0,215.0" fill="#BABAFF" stroke="#6b7a8f" stroke-width="0.6" stroke-linejoin="round"/>
<polygon points="601.1,139.4 594.2,117.1 570.0,215.0" fill="#A1A1F7" stroke="#6b7a8f" stroke-width="0.6" stroke-linejoin="round"/>
<polygon points="553.8,113.9 535.9,134.4 570.0,215.0" fill="#A7A7FF" stroke="#6b7a8f" stroke-width="0.6" stroke-linejoin="round"/>
<polygon points="594.2,117.1 553.8,113.9 570.0,215.0" fill="#B6B6FF" stroke="#6b7a8f" stroke-width="0.6" stroke-linejoin="round"/>
<circle cx="570.0" cy="69.5" r="2.6" fill="#e8402a"/>
<text x="570.0" y="59.5" font-size="11" text-anchor="middle" font-family="monospace" fill="#e8402a">0</text>
<circle cx="594.2" cy="117.1" r="2.6" fill="#e8402a"/>
<text x="605.6" y="113.0" font-size="11" text-anchor="middle" font-family="monospace" fill="#e8402a">1</text>
<circle cx="601.1" cy="139.4" r="2.6" fill="#e8402a"/>
<text x="614.9" y="145.6" font-size="11" text-anchor="middle" font-family="monospace" fill="#e8402a">2</text>
<circle cx="553.8" cy="113.9" r="2.6" fill="#e8402a"/>
<text x="545.1" y="107.0" font-size="11" text-anchor="middle" font-family="monospace" fill="#e8402a">3</text>
<circle cx="535.9" cy="134.4" r="2.6" fill="#e8402a"/>
<text x="521.9" y="138.5" font-size="11" text-anchor="middle" font-family="monospace" fill="#e8402a">4</text>
<circle cx="565.1" cy="150.1" r="2.6" fill="#e8402a"/>
<text x="560.9" y="167.4" font-size="11" text-anchor="middle" font-family="monospace" fill="#e8402a">5</text>
<circle cx="570.0" cy="215.0" r="2.6" fill="#e8402a"/>
<text x="570.0" y="233.0" font-size="11" text-anchor="middle" font-family="monospace" fill="#e8402a">75</text>
<text x="190" y="358" font-size="12" text-anchor="middle" font-family="monospace" fill="#6b7a8f">the whole model: 84 verts, 120 POLY_G3</text>
<text x="570" y="358" font-size="12" text-anchor="middle" font-family="monospace" fill="#6b7a8f">one of 12 spikes: 7 verts, 10 tris</text>
</svg>
